<svg xmlns="http://www.w3.org/2000/svg" viewBox="0 0 2305 1209"><g fill="white" transform="translate(-2746 741) scale(1 -1)"><path transform="translate(2753 0)" d="M100 475Q100 491 105.5 502.5Q111 514 120.5 523.0Q130 532 142.0 540.0Q154 548 167 556Q194 573 216.5 584.0Q239 595 272 595Q293 595 309.0 594.5Q325 594 342 581Q356 570 361.5 557.0Q367 544 367 525Q367 515 363.5 504.0Q360 493 353.5 484.0Q347 475 337.5 469.5Q328 464 317 464Q306 464 299.5 469.5Q293 475 287.5 481.0Q282 487 275.5 492.5Q269 498 259 498Q246 498 232.5 495.5Q219 493 208.0 487.0Q197 481 190.0 472.0Q183 463 183 450Q183 438 191.0 433.0Q199 428 210.5 426.0Q222 424 235.0 422.0Q248 420 259 414Q286 400 305.5 389.0Q325 378 350 361Q359 356 366.0 352.5Q373 349 379.5 346.0Q386 343 393.0 339.0Q400 335 409 328Q438 305 455.5 281.5Q473 258 473 220V197Q473 185 477.0 175.5Q481 166 481 153Q481 132 472.5 119.0Q464 106 456 89Q454 81 456.0 75.5Q458 70 453 64Q449 51 440.0 47.0Q431 43 423 33Q414 25 406.0 19.0Q398 13 390.0 7.5Q382 2 373.5 -3.0Q365 -8 353 -14Q334 -25 319.0 -29.5Q304 -34 284 -39Q277 -41 272.0 -45.5Q267 -50 259 -50Q250 -50 245.0 -48.5Q240 -47 234 -47Q219 -47 210.5 -50.0Q202 -53 189 -53Q181 -53 176.5 -49.5Q172 -46 164 -44Q153 -40 144.5 -40.5Q136 -41 125 -39Q114 -39 107.0 -32.5Q100 -26 89 -19Q78 -13 68.0 -10.5Q58 -8 47 3Q36 9 35.0 18.5Q34 28 28 39Q20 56 14.0 65.5Q8 75 8 95Q8 124 30.0 145.5Q52 167 83 167Q102 167 119.0 158.5Q136 150 136 133Q136 127 134.5 124.0Q133 121 133 117Q133 110 136.0 106.0Q139 102 139 97Q139 95 137.5 91.5Q136 88 136 86Q136 71 144.0 60.5Q152 50 164.5 42.5Q177 35 193.0 31.5Q209 28 225 28Q257 28 283.5 43.0Q310 58 331 83Q343 96 351.0 110.0Q359 124 359 145Q359 157 353.0 167.5Q347 178 347 189Q347 194 348.5 194.5Q350 195 350 197Q350 213 341.5 223.5Q333 234 320.0 242.0Q307 250 291.5 257.0Q276 264 261 272Q257 274 254.5 279.0Q252 284 247 286Q237 291 227.0 291.5Q217 292 208 300Q200 305 197.0 310.5Q194 316 186 322Q175 327 166.5 327.5Q158 328 147 336Q141 343 136.5 348.0Q132 353 128 361Q120 371 108.5 377.0Q97 383 97 398V423Q97 429 96.0 435.0Q95 441 95 448Q95 452 96.0 454.5Q97 457 97 461Q97 466 98.5 469.5Q100 473 100 475Z" /><path transform="translate(3245 0)" d="M261 625Q270 625 278.5 624.5Q287 624 294.5 621.5Q302 619 306.5 613.5Q311 608 311 598Q311 592 297.0 575.5Q283 559 266.5 539.5Q250 520 236.0 501.5Q222 483 222 473Q222 465 226.5 461.0Q231 457 237.0 455.5Q243 454 249.5 453.5Q256 453 259 453H292Q294 455 298 458Q306 464 311 464Q326 464 332.5 452.0Q339 440 339 425V417V398Q339 387 327.0 381.0Q315 375 300.5 372.0Q286 369 272.5 368.0Q259 367 256 367Q241 367 239.0 368.5Q237 370 231 370H211Q205 370 194.0 364.0Q183 358 183 350Q183 339 182.0 330.5Q181 322 180 316Q179 309 178 303Q175 297 172 292Q167 282 167 275V264Q167 247 162.0 227.0Q157 207 153 203Q148 198 145.0 193.5Q142 189 142 170V150Q142 144 144.0 135.5Q146 127 151.0 120.0Q156 113 163.0 108.0Q170 103 181 103Q194 103 203 110Q207 113 211 117Q219 117 223.5 112.5Q228 108 232 103Q236 97 239 89Q239 81 232.5 68.0Q226 55 217.0 42.5Q208 30 198.0 20.5Q188 11 181 11Q174 11 167.5 -0.5Q161 -12 161 -17Q158 -17 150.0 -19.0Q142 -21 134 -23Q124 -26 114 -28Q101 -28 93.5 -26.5Q86 -25 86 -17Q83 -15 77.0 -2.5Q71 10 65.0 25.0Q59 40 54.5 54.5Q50 69 50 75V122Q50 126 52.5 140.5Q55 155 58.5 172.5Q62 190 64.5 207.5Q67 225 67 236V253Q75 276 82 294Q87 310 92.0 323.5Q97 337 97 339V370Q97 383 89 386Q83 391 76.0 396.0Q69 401 69 409Q69 415 73.5 421.5Q78 428 84.5 435.0Q91 442 97.5 449.5Q104 457 108 464Q115 479 121.5 482.5Q128 486 136 492Q149 507 164.0 517.0Q179 527 192 548Q200 562 204.0 576.0Q208 590 222 598Q235 602 245.0 613.5Q255 625 261 625Z" /><path transform="translate(3495 0)" d="M220 475Q234 475 254.5 474.0Q275 473 289 467Q304 467 308.5 455.0Q313 443 320 428Q324 424 329.5 417.0Q335 410 339.5 402.5Q344 395 347.0 387.0Q350 379 350 373L342 284Q342 256 330.0 222.0Q318 188 295 161Q287 153 283.5 143.5Q280 134 276.5 124.0Q273 114 268.5 103.5Q264 93 256 83Q250 76 242.5 66.0Q235 56 226.5 45.5Q218 35 208.5 26.5Q199 18 189 14Q174 6 164.0 0.0Q154 -6 146.0 -10.0Q138 -14 129.5 -15.5Q121 -17 111 -17Q96 -17 83.0 -10.0Q70 -3 60.5 8.5Q51 20 45.0 34.5Q39 49 39 64V131Q39 137 35.0 142.0Q31 147 31 170Q30 199 45.0 240.0Q60 281 80.5 320.5Q101 360 121.5 390.5Q142 421 153 428Q164 435 171.5 443.5Q179 452 186.0 459.0Q193 466 200.5 470.5Q208 475 220 475ZM225 361Q209 361 192.5 347.5Q176 334 162.0 316.5Q148 299 137.0 281.5Q126 264 122 256L112 218Q108 204 105.5 191.0Q103 178 103 175V156Q107 153 110.0 144.0Q113 135 117.5 126.0Q122 117 128.0 110.0Q134 103 145 103Q165 112 182 121Q196 129 209.5 138.0Q223 147 228 156Q234 170 241.5 189.0Q249 208 256 225Q254 233 260.5 241.0Q267 249 267 256V284Q267 289 264.5 301.5Q262 314 256.5 327.5Q251 341 243.0 351.0Q235 361 225 361Z" /><path transform="translate(3823 0)" d="M189 481Q200 483 203.5 478.0Q207 473 220 467Q231 461 239.0 453.0Q247 445 247 434Q246 429 245 423Q243 410 247 398Q247 389 243.5 376.5Q240 364 242 356Q244 352 248 348Q251 345 254.5 342.5Q258 340 261 342Q271 344 282.5 361.0Q294 378 305.0 399.0Q316 420 327.0 440.0Q338 460 347 467L378 475Q384 477 391.5 476.0Q399 475 403 475Q422 464 427.0 444.5Q432 425 434 414Q435 400 424.5 377.0Q414 354 398 339Q391 335 385.0 332.5Q379 330 373 328Q368 328 365.5 328.5Q363 329 359 331Q354 333 349.5 333.5Q345 334 339 334Q326 334 314.5 324.0Q303 314 292 303Q275 282 265.5 255.5Q256 229 256 206Q249 199 239.5 188.5Q230 178 225 164Q219 150 219.5 135.0Q220 120 214 106Q215 94 214.0 78.5Q213 63 210.5 46.0Q208 29 204.0 13.5Q200 -2 195 -14Q188 -19 178.0 -23.0Q168 -27 157 -29Q145 -32 131 -33Q126 -33 118 -25Q114 -21 111 -17L97 11Q96 18 99.0 35.0Q102 52 106.0 69.5Q110 87 113.5 101.0Q117 115 117 117Q139 150 146.0 186.5Q153 223 161 259L153 325Q148 338 140.5 338.0Q133 338 125 336Q109 333 102.0 327.5Q95 322 90.0 316.0Q85 310 79.0 304.5Q73 299 58 297Q50 297 48.0 307.0Q46 317 44 325Q42 334 47.0 342.5Q52 351 60.5 358.5Q69 366 80.0 373.5Q91 381 100 389Q112 402 121.0 417.5Q130 433 139.0 446.5Q148 460 159.5 469.5Q171 479 189 481Z" /><path transform="translate(4182 0)" d="M167 481Q184 481 195.0 468.5Q206 456 206 442L197 414Q203 408 205 397Q206 392 206 386Q206 366 201.5 349.0Q197 332 197 311V303Q197 298 196.0 291.5Q195 285 193 279Q191 272 189 264V253Q189 242 185.5 235.0Q182 228 178 217Q176 209 171.5 200.5Q167 192 167 181Q167 177 169.0 170.5Q171 164 175.0 157.5Q179 151 184.5 146.5Q190 142 197 142Q205 142 211.5 147.0Q218 152 222 158Q227 163 232.5 166.5Q238 170 245 170H264Q270 170 271.0 164.0Q272 158 272 150Q272 147 263.0 138.0Q254 129 243.0 118.5Q232 108 221.0 98.5Q210 89 206 86Q203 79 193.0 62.0Q183 45 171.0 27.5Q159 10 145.5 -3.5Q132 -17 122 -17Q115 -17 106.5 -12.5Q98 -8 91.0 -0.5Q84 7 79.5 15.0Q75 23 75 31V47Q75 55 74.0 61.0Q73 67 67 67V86L75 114V161Q75 176 79.0 185.0Q83 194 83 208V217Q83 224 87.5 237.0Q92 250 97.0 265.0Q102 280 106.5 294.5Q111 309 111 320Q111 328 104.5 337.5Q98 347 83 347Q77 347 72.5 343.0Q68 339 47 339Q45 340 43 344Q39 350 39 359V375Q39 384 56.5 401.5Q74 419 96.5 436.5Q119 454 140.0 467.5Q161 481 167 481ZM170 717Q174 717 180.5 718.5Q187 720 194.0 721.5Q201 723 207.5 724.5Q214 726 217 726Q231 721 235.0 709.0Q239 697 247 684Q247 676 248.5 668.0Q250 660 250 653Q250 647 246.0 638.5Q242 630 242 617Q240 610 236.5 600.0Q233 590 227.5 581.5Q222 573 214.5 567.5Q207 562 197 564Q183 564 166.5 573.5Q150 583 142 598Q135 604 137.0 616.0Q139 628 139 637Q139 664 148.0 681.0Q157 698 170 717Z" /><path transform="translate(4424 0)" d="M242 475Q263 475 277.5 467.5Q292 460 301.0 447.0Q310 434 314.0 417.0Q318 400 317 381Q317 354 297.0 337.5Q277 321 256 309Q237 296 215.5 286.0Q194 276 175.5 264.0Q157 252 144.5 236.0Q132 220 131 195V153Q129 136 138.0 119.5Q147 103 161 103Q162 102 169.0 106.0Q176 110 184.5 115.5Q193 121 201.5 127.0Q210 133 214 136Q229 143 237.5 147.5Q246 152 250 150Q257 150 262.0 148.0Q267 146 267 133Q265 111 248.0 90.5Q231 70 211.0 52.5Q191 35 172.0 22.0Q153 9 147 3Q130 -12 115.5 -13.0Q101 -14 86 -14Q77 -13 67.5 -6.0Q58 1 50.5 10.5Q43 20 39.0 30.0Q35 40 36 47V64Q36 71 32 79Q30 83 28 86L31 106V122Q31 126 33.0 143.5Q35 161 38.0 181.5Q41 202 43.5 220.5Q46 239 47 245Q51 248 51.0 251.0Q51 254 50.0 257.0Q49 260 49.0 264.5Q49 269 53 275Q53 287 58 300Q61 307 64 314L78 347Q80 369 99.0 392.5Q118 416 143.5 435.0Q169 454 196.0 465.5Q223 477 242 475ZM197 400Q192 400 187.0 392.5Q182 385 177 376Q172 365 167 353Q166 348 164.0 341.5Q162 335 161.0 329.5Q160 324 162.0 320.5Q164 317 170 317Q175 316 185.0 319.0Q195 322 205.5 328.0Q216 334 224.5 342.5Q233 351 234 361V378Q234 383 231.0 387.0Q228 391 224 393Q220 396 214 398Z" /><path transform="translate(4708 0)" d="M289 484Q304 484 316.0 470.0Q328 456 328 442Q328 431 312.0 423.5Q296 416 276.0 409.5Q256 403 236.5 397.0Q217 391 211 384Q202 375 198.0 363.5Q194 352 194.0 340.0Q194 328 198.0 317.0Q202 306 208 297Q215 283 224.5 267.5Q234 252 242.0 232.0Q250 212 255.5 187.0Q261 162 261 131Q261 104 243.0 76.5Q225 49 197 28Q175 16 163.0 8.5Q151 1 142.0 -3.5Q133 -8 124.5 -9.5Q116 -11 103 -11H67Q62 -11 54.0 -12.0Q46 -13 38 -15Q28 -17 17 -19H11H-11Q-39 -19 -39 8Q-39 15 -30.0 30.0Q-21 45 -7.5 59.0Q6 73 21.0 84.0Q36 95 47 95Q50 95 57.0 90.5Q64 86 73.5 81.0Q83 76 95.0 71.5Q107 67 122 67Q132 67 140.5 73.0Q149 79 155.0 87.5Q161 96 164.0 105.5Q167 115 167 122Q167 139 154.0 163.5Q141 188 125.0 213.5Q109 239 96.0 262.0Q83 285 83 300V311Q87 328 95.0 346.0Q103 364 113.0 379.0Q123 394 135.0 405.5Q147 417 161 420Q168 424 175.5 433.0Q183 442 189 450Q197 458 203.5 465.5Q210 473 217 475Q225 482 242.0 483.0Q259 484 267 484Z" /></g></svg>